<svg width="720" height="320" viewBox="0 0 720 320" fill="none" xmlns="http://www.w3.org/2000/svg">
  <defs>
    <linearGradient id="bg" x1="0" y1="0" x2="720" y2="320" gradientUnits="userSpaceOnUse">
      <stop stop-color="#EEF6FC"/>
      <stop offset="1" stop-color="#D9EBF7"/>
    </linearGradient>
  </defs>
  <rect x="0" y="0" width="720" height="320" rx="24" fill="url(#bg)"/>
  <rect x="54" y="58" width="228" height="200" rx="16" fill="#FFFFFF" stroke="#C2D8E8"/>
  <rect x="80" y="88" width="176" height="14" rx="7" fill="#CDE1EF"/>
  <rect x="80" y="114" width="130" height="10" rx="5" fill="#D9E8F2"/>
  <rect x="80" y="148" width="176" height="38" rx="9" fill="#F4FAFE" stroke="#CCE0ED"/>
  <rect x="80" y="198" width="176" height="38" rx="9" fill="#F4FAFE" stroke="#CCE0ED"/>
  <circle cx="472" cy="153" r="88" fill="#FFFFFF" stroke="#BDD6E7"/>
  <rect x="455" y="108" width="34" height="90" rx="7" fill="#1170A4"/>
  <rect x="427" y="136" width="90" height="34" rx="7" fill="#1170A4"/>
  <circle cx="613" cy="86" r="34" fill="#FFFFFF" stroke="#BDD6E7"/>
  <circle cx="613" cy="86" r="18" fill="#1A7AAE"/>
  <rect x="558" y="232" width="112" height="14" rx="7" fill="#C8DDEA"/>
  <rect x="538" y="256" width="154" height="10" rx="5" fill="#D6E7F2"/>
</svg>
